<?xml version="1.0" encoding="UTF-8"?><svg id="Layer_1" xmlns="http://www.w3.org/2000/svg" viewBox="0 0 49.11 49.11"><defs><style>.cls-1{fill:#eaeaea;stroke-width:0px;}</style></defs><path class="cls-1" d="M24.56,0h0C11.05,0,0,11.05,0,24.56h0c0,13.51,11.05,24.56,24.56,24.56h0c13.51,0,24.56-11.05,24.56-24.56h0C49.11,11.05,38.06,0,24.56,0ZM39.91,24.56c0,1.01-.83,1.84-1.84,1.84h-11.67v11.67c0,1.01-.83,1.84-1.84,1.84s-1.84-.83-1.84-1.84v-11.67h-11.67c-1.01,0-1.84-.83-1.84-1.84h0c0-1.01.83-1.84,1.84-1.84h11.67v-11.67c0-1.01.83-1.84,1.84-1.84s1.84.83,1.84,1.84v11.67h11.67c1.01,0,1.84.83,1.84,1.84h0Z"/></svg>