<?xml version="1.0" encoding="UTF-8"?><svg xmlns="http://www.w3.org/2000/svg" viewBox="0 0 49.77 49.77"><defs><style>.cls-1{fill:#a1f162;stroke-width:0px;}</style></defs><g id="Text"><path class="cls-1" d="M13.73,29.98v-.89h-.03c-.22.35-.54.62-.94.81-.41.19-.84.28-1.3.28-.51,0-.97-.1-1.38-.3-.4-.2-.75-.47-1.03-.81s-.49-.72-.64-1.16c-.15-.44-.22-.9-.22-1.38s.08-.93.23-1.37.37-.82.65-1.15.62-.59,1.02-.79c.4-.19.85-.29,1.34-.29s.93.1,1.28.29c.35.19.62.4.81.63h.03v-4.28h2.26v10.41h-2.08ZM13.64,26.54c0-.22-.04-.44-.12-.65-.08-.21-.19-.4-.33-.56s-.31-.3-.52-.4-.43-.15-.69-.15-.5.05-.7.15c-.2.1-.37.23-.51.39-.14.16-.24.35-.31.56-.07.21-.1.43-.1.65s.03.44.1.65.17.41.31.57.31.3.51.4c.2.1.44.15.7.15s.49-.05.69-.15c.2-.1.37-.23.52-.4s.25-.35.33-.56c.08-.21.12-.43.12-.65Z"/><path class="cls-1" d="M24.87,26.53c0,.56-.1,1.07-.3,1.52-.2.45-.48.84-.83,1.16-.35.32-.75.56-1.21.74s-.95.26-1.47.26-1-.09-1.47-.26-.87-.42-1.21-.74c-.34-.32-.62-.7-.82-1.16s-.3-.96-.3-1.52.1-1.06.3-1.51c.2-.45.48-.83.82-1.14.34-.31.75-.55,1.21-.72s.95-.25,1.47-.25,1.01.08,1.47.25.86.4,1.21.72c.35.31.62.69.83,1.14.2.45.3.95.3,1.51ZM22.69,26.53c0-.22-.04-.44-.11-.65-.07-.21-.18-.4-.32-.56-.14-.16-.31-.29-.51-.39-.2-.1-.44-.15-.7-.15s-.5.05-.7.15c-.2.1-.37.23-.5.39-.13.16-.23.35-.3.56-.07.21-.1.43-.1.65s.03.44.1.65c.07.21.17.4.31.57.14.17.31.31.51.41.2.1.44.15.7.15s.5-.05.7-.15c.2-.1.37-.24.51-.41.14-.17.24-.36.31-.57.07-.21.1-.43.1-.65Z"/><path class="cls-1" d="M30.8,29.98v-3.75c0-.19-.02-.38-.05-.55-.03-.17-.08-.33-.16-.46-.07-.13-.18-.24-.31-.32-.13-.08-.3-.12-.5-.12s-.38.04-.53.12c-.15.08-.28.19-.38.32-.1.14-.18.3-.23.48-.05.18-.08.36-.08.56v3.72h-2.27v-6.86h2.19v.95h.03c.08-.15.19-.29.32-.43.13-.14.29-.26.47-.37.18-.1.37-.18.59-.25.21-.06.44-.1.67-.1.46,0,.85.08,1.17.25.32.17.58.38.78.64.2.26.34.56.43.9.09.34.13.68.13,1.02v4.24h-2.27Z"/><path class="cls-1" d="M41.59,26.64v.28c0,.09,0,.18-.01.26h-4.97c.02.19.08.37.17.52.1.16.22.29.37.41.15.11.32.2.51.27.19.06.38.1.59.1.36,0,.66-.07.91-.2.25-.13.45-.3.61-.52l1.57.99c-.32.47-.75.83-1.27,1.08-.53.25-1.14.38-1.84.38-.51,0-1-.08-1.46-.24-.46-.16-.86-.39-1.2-.7-.34-.31-.62-.69-.81-1.14-.2-.45-.3-.96-.3-1.54s.1-1.07.29-1.52c.19-.45.45-.84.78-1.16.33-.32.72-.56,1.17-.74s.94-.26,1.46-.26.97.09,1.39.25c.42.17.78.42,1.09.74.3.32.54.71.71,1.17.17.46.25.98.25,1.57ZM39.51,25.77c0-.36-.11-.67-.34-.92-.22-.26-.56-.39-1.01-.39-.22,0-.42.03-.61.1-.18.07-.34.16-.48.28-.14.12-.25.26-.33.42-.08.16-.13.33-.14.5h2.91Z"/></g><g id="Square"><path class="cls-1" d="M43.06,49.77H6.72c-3.7,0-6.72-3.01-6.72-6.72V6.72C0,3.01,3.01,0,6.72,0h36.34c3.7,0,6.72,3.01,6.72,6.72v36.34c0,3.7-3.01,6.72-6.72,6.72ZM6.72,2.63c-2.26,0-4.09,1.84-4.09,4.09v36.34c0,2.26,1.84,4.09,4.09,4.09h36.34c2.26,0,4.09-1.84,4.09-4.09V6.72c0-2.26-1.84-4.09-4.09-4.09H6.72Z"/></g></svg>