<?xml version="1.0" encoding="UTF-8"?><svg id="Layer_1" xmlns="http://www.w3.org/2000/svg" viewBox="0 0 50 19.78"><defs><style>.cls-1{fill:#489882;stroke-width:0px;}</style></defs><path class="cls-1" d="M50,19.78h-3.34v-10.96h-7.62v10.96h-3.34V7.15c0-.92.75-1.67,1.67-1.67h10.96c.92,0,1.67.75,1.67,1.67v12.63Z"/><path class="cls-1" d="M30.48,19.78h-10.96c-.92,0-1.67-.75-1.67-1.67V5.48h3.34v10.96h7.62V5.48h3.34v12.63c0,.92-.75,1.67-1.67,1.67Z"/><path class="cls-1" d="M10.96,0v5.48H1.67c-.92,0-1.67.75-1.67,1.67v10.96c0,.92.75,1.67,1.67,1.67h10.96c.92,0,1.67-.75,1.67-1.67V0h-3.34ZM10.96,16.44H3.34v-7.62h7.62v7.62Z"/></svg>