<?xml version="1.0" encoding="UTF-8"?><svg id="Layer_1" xmlns="http://www.w3.org/2000/svg" viewBox="0 0 24.91 24.51"><defs><style>.cls-1{fill:#797979;stroke-width:0px;}</style></defs><path class="cls-1" d="M23.62,5.21h-5.99v-1.22c0-2.2-1.79-3.99-3.99-3.99h-2.37c-2.2,0-3.99,1.79-3.99,3.99v1.22H1.29c-.71,0-1.29.58-1.29,1.29s.58,1.29,1.29,1.29h2.11v12.98c0,2.06,1.68,3.74,3.74,3.74h10.63c2.06,0,3.74-1.68,3.74-3.74V7.79h2.11c.71,0,1.29-.58,1.29-1.29s-.58-1.29-1.29-1.29ZM9.86,3.99c0-.78.63-1.41,1.41-1.41h2.37c.78,0,1.41.63,1.41,1.41v1.22h-5.19s0-1.22,0-1.22ZM18.93,20.76c0,.64-.52,1.17-1.17,1.17H7.14c-.64,0-1.17-.52-1.17-1.17V7.79h12.96v12.98h0Z"/><path class="cls-1" d="M9.89,10.24c-.71,0-1.29.58-1.29,1.29v6.65c0,.71.58,1.29,1.29,1.29s1.29-.58,1.29-1.29v-6.65c0-.71-.58-1.29-1.29-1.29Z"/><path class="cls-1" d="M15.02,10.24c-.71,0-1.29.58-1.29,1.29v6.65c0,.71.58,1.29,1.29,1.29s1.29-.58,1.29-1.29v-6.65c0-.71-.58-1.29-1.29-1.29Z"/></svg>